<?xml version="1.0" encoding="UTF-8"?>
<svg width="54.19" height="34.32" version="1.1" viewBox="0 0 14.34 9.084" xmlns="http://www.w3.org/2000/svg">
 <title>MRT Jakarta logo vertical version</title>
 <defs>
  <clipPath id="vlpa">
   <path d="M 0,595.3 H 280.6 V 0 H 0 Z"/>
  </clipPath>
  <clipPath id="vlpb">
   <path d="m154.5 540.5h41.31v26.13h-41.31z"/>
  </clipPath>
 </defs>
 <g transform="translate(.6741 -56.86)">
  <g transform="matrix(2.726,0,0,2.726,1.164,-157.1)">
   <g transform="matrix(.3528 0 0 -.3528 -55.18 278.4)">
    <g transform="matrix(.361 0 0 .361 98.72 362.1)">
     <path transform="translate(179.2,550.5)" d="m0 0h5.055l2.917 10.58c0.913 3.305-1.42 5.56-4.628 5.56-4.413 0-6.864-2.566-7.874-6.221-0.077-0.292-4.083-14.68-4.083-14.68-0.252-0.719-0.525-1.225-1.516-1.225-0.661 0-1.245 0.544-1.051 1.205l4.22 15.36c0.836 3.188-1.75 5.56-4.628 5.56-4.627 0-6.785-2.255-7.699-5.56l-5.424-19.7h4.821l5.541 20.06c0.175 0.68 0.622 1.225 1.556 1.225 0.661 0 1.069-0.545 0.875-1.225l-4.044-14.68c-0.953-3.441 1.244-6.163 4.511-6.241 4.18-0.077 6.61 1.225 7.951 6.241l4.083 14.68c0.175 0.68 0.681 1.225 1.556 1.225 0.661 0 1.069-0.545 0.875-1.225z" style="fill:#0056b8"/>
     <g clip-path="url(#vlpa)">
      <g transform="translate(195.8,566)">
       <path d="m0 0h-4.802l-5.541-20.14c-0.233-0.661-0.447-1.069-1.516-1.069-0.622 0-1.07 0.505-0.914 1.069l0.835 3.053h-5.054s-0.583-2.159-0.603-2.198c-1.128-4.082 1.07-6.24 4.511-6.24 4.86 0 6.824 2.799 7.776 6.24 0 0.039 5.308 19.29 5.308 19.29" style="fill:#45bb3c"/>
      </g>
     </g>
    </g>
   </g>
  </g>
 </g>
</svg>