<?xml version="1.0" encoding="utf-8"?>
<!-- Generator: Adobe Illustrator 27.0.0, SVG Export Plug-In . SVG Version: 6.00 Build 0)  -->
<svg version="1.1" id="Layer_1" xmlns="http://www.w3.org/2000/svg" xmlns:xlink="http://www.w3.org/1999/xlink" x="0px" y="0px"
	 viewBox="0 0 512 512" style="enable-background:new 0 0 512 512;" xml:space="preserve">
<style type="text/css">
	.st0{fill:#FFFFFF;}
	.st1{fill:#EE2C34;}
</style>
<circle class="st0" cx="255.8" cy="258.7" r="256"/>
<path class="st1" d="M317.5,115.4H194.4c-3.1,0-19.7,0.9-35.2,19c-15.3,17.8-15.7,35.3-15.7,37.3v154.7c0,15.5,12.6,28.1,28.1,28.1
	h14.1l-28.1,42.2h33.1l9.4-14.1h112.5l9.5,14.1h32.4l-28.1-42.2h14.1c15.5,0,28.1-12.6,28.1-28.1V171.6c0-2.6-0.4-20.2-15.9-37.5
	C336.4,115.9,319.4,115.4,317.5,115.4z M227.9,143.5h56.2v28.1h-56.2V143.5z M192.7,326.3c-11.7,0-21.1-9.5-21.1-21.1
	c0-11.7,9.5-21.1,21.1-21.1c11.7,0,21.1,9.5,21.1,21.1C213.8,316.9,204.4,326.3,192.7,326.3z M319.3,326.3
	c-11.7,0-21.1-9.5-21.1-21.1c0-11.7,9.5-21.1,21.1-21.1c11.7,0,21.1,9.5,21.1,21.1C340.4,316.9,330.9,326.3,319.3,326.3z M340.4,256
	H171.6v-56.2h168.7V256z"/>
</svg>
