<?xml version="1.0" standalone="no"?>
<!DOCTYPE svg PUBLIC "-//W3C//DTD SVG 20010904//EN"
 "http://www.w3.org/TR/2001/REC-SVG-20010904/DTD/svg10.dtd">
<svg version="1.0" xmlns="http://www.w3.org/2000/svg"
 width="513.000000pt" height="513.000000pt" viewBox="0 0 513.000000 513.000000"
 preserveAspectRatio="xMidYMid meet">
<metadata>
Created by potrace 1.14, written by Peter Selinger 2001-2017
</metadata>
<g transform="translate(0.000000,513.000000) scale(0.100000,-0.100000)"
fill="#000000" stroke="none">
<path d="M1845 3982 c-148 -51 -279 -178 -354 -344 -52 -114 -52 -120 -49
-1008 l3 -825 30 -53 c32 -59 66 -92 129 -124 32 -17 64 -23 144 -26 56 -2
102 -6 102 -8 0 -3 -58 -91 -128 -197 -71 -105 -132 -198 -136 -204 -6 -10 30
-13 163 -13 l171 0 46 70 47 70 561 -2 561 -3 45 -67 45 -67 168 -1 c132 0
167 3 161 13 -4 6 -65 99 -136 204 -70 106 -128 194 -128 197 0 2 46 6 103 8
79 3 111 9 143 26 63 32 97 65 129 124 l30 53 0 860 0 860 -26 72 c-67 182
-224 339 -388 387 -48 14 -140 16 -720 16 -605 -1 -671 -2 -716 -18z m1005
-407 l0 -135 -280 0 -280 0 0 135 0 135 280 0 280 0 0 -135z m560 -705 l0
-280 -840 0 -840 0 0 280 0 280 840 0 840 0 0 -280z m-1381 -590 c77 -39 117
-113 109 -205 -14 -170 -221 -242 -343 -120 -130 130 -41 345 142 345 34 0 68
-7 92 -20z m1272 -3 c51 -27 98 -95 106 -154 17 -129 -108 -250 -235 -228
-196 33 -234 295 -57 388 46 25 133 21 186 -6z"/>
</g>
</svg>
